<svg width="24" height="24" viewBox="0 0 24 24" fill="none" xmlns="http://www.w3.org/2000/svg">
<g id="Icon/&#236;&#182;&#156;&#236;&#132;&#157;">
<path id="Vector" fill-rule="evenodd" clip-rule="evenodd" d="M3.99878 7.42969C3.99878 4.94469 6.01378 2.92969 8.49878 2.92969C10.9838 2.92969 12.9988 4.94469 12.9988 7.42969C12.9988 9.91469 10.9838 11.9297 8.49878 11.9297C6.01378 11.9297 3.99878 9.91469 3.99878 7.42969ZM1.99878 17.9297C1.99878 15.8857 3.22679 14.0307 5.06079 13.2737C5.31679 13.1677 5.59078 13.1897 5.84278 13.3047C6.75878 13.7217 7.62378 13.9297 8.49878 13.9297C9.37678 13.9297 10.2388 13.7327 11.1238 13.3357C11.3798 13.2217 11.6788 13.2247 11.9368 13.3357C13.7638 14.1237 14.9988 15.9337 14.9988 17.9297V19.9297C14.9988 20.4817 14.5508 20.9297 13.9988 20.9297H2.99878C2.44678 20.9297 1.99878 20.4817 1.99878 19.9297V17.9297ZM20.2702 8.33765C20.4652 8.14265 20.7322 8.05664 20.9882 8.05664C21.2442 8.05664 21.5122 8.14265 21.7072 8.33765C22.0982 8.72864 22.0982 9.38463 21.7072 9.77563L17.7072 13.7756C17.3172 14.1656 16.6602 14.1656 16.2702 13.7756L14.2702 11.7756C13.8792 11.3846 13.8792 10.7286 14.2702 10.3376C14.6602 9.94764 15.3172 9.94764 15.7072 10.3376L16.9882 11.6186L20.2702 8.33765Z" fill="white"/>
</g>
</svg>
