<svg width="24" height="24" viewBox="0 0 24 24" fill="none" xmlns="http://www.w3.org/2000/svg">
<path fill-rule="evenodd" clip-rule="evenodd" d="M3.9989 7.42969C3.9989 4.94469 6.0139 2.92969 8.4989 2.92969C10.9839 2.92969 12.9989 4.94469 12.9989 7.42969C12.9989 9.91469 10.9839 11.9297 8.4989 11.9297C6.0139 11.9297 3.9989 9.91469 3.9989 7.42969ZM1.9989 17.9297C1.9989 15.8857 3.22691 14.0307 5.06091 13.2737C5.31691 13.1677 5.5909 13.1897 5.8429 13.3047C6.7589 13.7217 7.6239 13.9297 8.4989 13.9297C9.3769 13.9297 10.2389 13.7327 11.1239 13.3357C11.3799 13.2217 11.6789 13.2247 11.9369 13.3357C13.7639 14.1237 14.9989 15.9337 14.9989 17.9297V19.9297C14.9989 20.4817 14.5509 20.9297 13.9989 20.9297H2.9989C2.4469 20.9297 1.9989 20.4817 1.9989 19.9297V17.9297ZM20.2703 8.33765C20.4653 8.14265 20.7323 8.05664 20.9883 8.05664C21.2443 8.05664 21.5123 8.14265 21.7073 8.33765C22.0983 8.72864 22.0983 9.38463 21.7073 9.77563L17.7073 13.7756C17.3173 14.1656 16.6603 14.1656 16.2703 13.7756L14.2703 11.7756C13.8793 11.3846 13.8793 10.7286 14.2703 10.3376C14.6603 9.94764 15.3173 9.94764 15.7073 10.3376L16.9883 11.6186L20.2703 8.33765Z" fill="#333335"/>
</svg>
