<svg width="24" height="24" viewBox="0 0 24 24" fill="none" xmlns="http://www.w3.org/2000/svg">
<g id="Icon/Close">
<path id="Vector" fill-rule="evenodd" clip-rule="evenodd" d="M4.61346 4.61321C4.96493 4.26174 5.53478 4.26174 5.88625 4.61321L11.9998 10.7268L18.1134 4.61321C18.4649 4.26174 19.0348 4.26174 19.3862 4.61321C19.7377 4.96469 19.7377 5.53453 19.3862 5.88601L13.2726 11.9996L19.3862 18.1132C19.7377 18.4647 19.7377 19.0345 19.3862 19.386C19.0348 19.7375 18.4649 19.7375 18.1134 19.386L11.9998 13.2724L5.88625 19.386C5.53478 19.7375 4.96493 19.7375 4.61346 19.386C4.26199 19.0345 4.26199 18.4647 4.61346 18.1132L10.7271 11.9996L4.61346 5.88601C4.26199 5.53453 4.26199 4.96469 4.61346 4.61321Z" fill="#171719"/>
</g>
</svg>
