<svg width="24" height="24" viewBox="0 0 24 24" fill="none" xmlns="http://www.w3.org/2000/svg">
<g id="Shape">
<g id="Vector">
<path fill-rule="evenodd" clip-rule="evenodd" d="M2.1001 11.9996C2.1001 6.53199 6.53247 2.09961 12.0001 2.09961C17.4677 2.09961 21.9001 6.53199 21.9001 11.9996C21.9001 17.4672 17.4677 21.8996 12.0001 21.8996C6.53247 21.8996 2.1001 17.4672 2.1001 11.9996ZM8.50009 7.22684L7.22729 8.49963L10.7273 11.9996L7.22729 15.4996L8.50009 16.7724L12.0001 13.2724L15.5001 16.7724L16.7729 15.4996L13.2729 11.9996L16.7729 8.49963L15.5001 7.22684L12.0001 10.7268L8.50009 7.22684Z" fill="#333335"/>
<path d="M7.22729 8.49963L8.50009 7.22684L12.0001 10.7268L15.5001 7.22684L16.7729 8.49963L13.2729 11.9996L16.7729 15.4996L15.5001 16.7724L12.0001 13.2724L8.50009 16.7724L7.22729 15.4996L10.7273 11.9996L7.22729 8.49963Z" fill="white"/>
</g>
</g>
</svg>
