<svg width="24" height="24" viewBox="0 0 24 24" fill="none" xmlns="http://www.w3.org/2000/svg">
<g id="Icon/ID">
<path id="Vector" d="M11.9978 1.95312C9.2364 1.95312 6.9978 4.19173 6.9978 6.95312C6.9978 9.71453 9.2364 11.9531 11.9978 11.9531C14.7592 11.9531 16.9978 9.71453 16.9978 6.95312C16.9978 4.19173 14.7592 1.95312 11.9978 1.95312ZM11.9978 3.95312C13.6547 3.95312 14.9978 5.29623 14.9978 6.95312C14.9978 8.61002 13.6547 9.95312 11.9978 9.95312C10.3409 9.95312 8.9978 8.61002 8.9978 6.95312C8.9978 5.29623 10.3409 3.95312 11.9978 3.95312ZM8.4666 13.2656C5.8523 13.9801 3.9978 16.2533 3.9978 18.9531V20.9531C3.9978 21.5054 4.4455 21.9531 4.9978 21.9531H18.9978C19.5501 21.9531 19.9978 21.5054 19.9978 20.9531V18.9531C19.9978 16.2533 18.1433 13.9801 15.529 13.2656C15.3049 13.2043 15.0847 13.2326 14.8728 13.3281C13.9573 13.7407 12.9827 13.9531 11.9978 13.9531C11.0129 13.9531 10.0383 13.7407 9.1228 13.3281C8.9109 13.2326 8.6907 13.2043 8.4666 13.2656ZM8.8728 15.2656C9.8826 15.6475 10.9175 15.9531 11.9978 15.9531C13.0781 15.9531 14.113 15.6475 15.1228 15.2656C16.8262 15.7816 17.9978 17.2195 17.9978 18.9531V19.9531H5.9978V18.9531C5.9978 17.2195 7.1694 15.7816 8.8728 15.2656Z" fill="#9B9B9C"/>
</g>
</svg>
