<svg width="24" height="24" viewBox="0 0 24 24" fill="none" xmlns="http://www.w3.org/2000/svg">
<path d="M5.95215 3.99805C3.91815 3.99805 2.32617 4.51204 2.04517 6.46704C1.95517 7.09304 2.15315 7.70905 2.60816 8.15405C2.83416 8.37505 3.07316 8.63805 3.38916 8.90405C4.18216 9.57305 5.19317 10.325 6.13917 10.998C8.74217 12.848 10.7972 13.998 12.0142 13.998C13.2312 13.998 15.2862 12.848 17.8892 10.998C18.8362 10.325 19.8472 9.57205 20.6392 8.90405C20.9552 8.63805 21.1942 8.37605 21.4202 8.15405C21.8752 7.70905 22.0732 7.09304 21.9832 6.46704C21.7022 4.51204 20.1102 3.99805 18.0762 3.99805H5.95215ZM2.01416 10.154V15.998C2.01416 18.207 3.80516 19.998 6.01417 19.998H18.0142C20.2232 19.998 22.0142 18.207 22.0142 15.998V10.154C21.1942 10.933 20.2782 11.737 18.9832 12.654C16.1472 14.662 13.6002 15.998 12.0142 15.998C10.4282 15.998 7.88118 14.662 5.04517 12.654C3.74917 11.737 2.83416 10.933 2.01416 10.154Z" fill="#333335"/>
</svg>
