<svg width="24" height="24" viewBox="0 0 24 24" fill="none" xmlns="http://www.w3.org/2000/svg">
<g id="Icon/Password">
<path id="Vector" d="M11.9978 1.95312C9.2368 1.95312 6.9978 4.19213 6.9978 6.95312V8.95312C5.3408 8.95312 3.9978 10.2961 3.9978 11.9531V18.9531C3.9978 20.6101 5.3408 21.9531 6.9978 21.9531H16.9978C18.6548 21.9531 19.9978 20.6101 19.9978 18.9531V11.9531C19.9978 10.2961 18.6548 8.95312 16.9978 8.95312V6.95312C16.9978 4.19213 14.7588 1.95312 11.9978 1.95312ZM11.9978 3.95312C13.6548 3.95312 14.9978 5.29612 14.9978 6.95312V8.95312H8.9978V6.95312C8.9978 5.29612 10.3408 3.95312 11.9978 3.95312ZM6.9978 10.9531H7.9978H15.9978H16.9978C17.5498 10.9531 17.9978 11.4011 17.9978 11.9531V18.9531C17.9978 19.5051 17.5498 19.9531 16.9978 19.9531H6.9978C6.4458 19.9531 5.9978 19.5051 5.9978 18.9531V11.9531C5.9978 11.4011 6.4458 10.9531 6.9978 10.9531ZM11.9978 11.9531C10.3408 11.9531 8.9978 13.2961 8.9978 14.9531V15.9531C8.9978 17.6101 10.3408 18.9531 11.9978 18.9531C13.6548 18.9531 14.9978 17.6101 14.9978 15.9531V14.9531C14.9978 13.2961 13.6548 11.9531 11.9978 11.9531ZM11.9978 13.9531C12.5498 13.9531 12.9978 14.4011 12.9978 14.9531V15.9531C12.9978 16.5051 12.5498 16.9531 11.9978 16.9531C11.4458 16.9531 10.9978 16.5051 10.9978 15.9531V14.9531C10.9978 14.4011 11.4458 13.9531 11.9978 13.9531Z" fill="#9B9B9C"/>
</g>
</svg>
