<svg width="20" height="20" viewBox="0 0 20 20" fill="none" xmlns="http://www.w3.org/2000/svg">
<path d="M14.1634 1.62744C13.9425 1.62744 13.7209 1.70578 13.5642 1.86161C13.1009 2.32495 11.4334 3.99246 11.0634 4.3633L3.55894 11.8675L2.72519 12.7008C2.60878 12.8175 2.54903 12.9825 2.51678 13.1441L1.68294 17.3133C1.56627 17.8966 2.06361 18.3933 2.64702 18.2775C3.16811 18.1725 6.29486 17.5475 6.81594 17.4433C6.97736 17.4108 7.14253 17.3508 7.25886 17.235L8.09269 16.4008L15.5967 8.89664C15.9675 8.52664 17.635 6.85827 18.0984 6.39577C18.2542 6.2391 18.3325 6.01744 18.3325 5.79661C18.3325 4.43244 17.985 3.45744 17.2642 2.7216C16.5367 1.9791 15.565 1.62744 14.1634 1.62744ZM14.4917 3.30993C15.2442 3.3541 15.7317 3.52663 16.0659 3.8683C16.4075 4.21663 16.6234 4.69997 16.67 5.43747C16.2134 5.8933 15.545 6.5516 14.9975 7.0991C14.3367 6.43827 13.5217 5.62329 12.8609 4.96246C13.4092 4.41496 14.0359 3.76576 14.4917 3.30993ZM4.15827 13.665L6.29486 15.8016L6.21669 15.88C5.66669 15.99 4.55603 16.2225 3.53294 16.4275L4.08011 13.7433L4.15827 13.665Z" fill="white"/>
</svg>
