<svg width="24" height="24" viewBox="0 0 24 24" fill="none" xmlns="http://www.w3.org/2000/svg">
<g id="Icon/&#236;&#132;&#184;&#236;&#133;&#152;">
<path id="Vector" d="M12.0142 1.99805C10.6352 1.99805 9.52117 2.88705 9.17017 4.15405C8.26517 4.40505 7.49216 5.13505 7.20216 5.99805C6.66016 5.99805 6.18616 5.99805 6.01416 5.99805C3.80516 5.99805 2.01416 7.78905 2.01416 9.99805V17.998C2.01416 20.207 3.80516 21.998 6.01416 21.998H18.0142C20.2232 21.998 22.0142 20.207 22.0142 17.998V9.99805C22.0142 7.78905 20.2232 5.99805 18.0142 5.99805L16.8262 6.02905C16.5832 5.19405 15.7492 4.31105 14.8582 4.12305C14.5072 2.85605 13.3932 1.99805 12.0142 1.99805ZM12.0142 3.99805C12.5662 3.99805 13.0142 4.44605 13.0142 4.99805C13.0142 5.55005 13.4622 5.99805 14.0142 5.99805C14.5662 5.99805 15.0142 6.44605 15.0142 6.99805C15.0142 7.55005 14.5662 7.99805 14.0142 7.99805H10.0142C9.46216 7.99805 9.01416 7.55005 9.01416 6.99805C9.01416 6.44605 9.46216 5.99805 10.0142 5.99805C10.5662 5.99805 11.0142 5.55005 11.0142 4.99805C11.0142 4.44605 11.4622 3.99805 12.0142 3.99805ZM16.0142 10.998C16.5662 10.998 17.0142 11.446 17.0142 11.998V16.998C17.0142 17.55 16.5662 17.998 16.0142 17.998C15.4622 17.998 15.0142 17.55 15.0142 16.998V11.998C15.0142 11.446 15.4622 10.998 16.0142 10.998ZM12.0142 12.998C12.5662 12.998 13.0142 13.446 13.0142 13.998V16.998C13.0142 17.55 12.5662 17.998 12.0142 17.998C11.4622 17.998 11.0142 17.55 11.0142 16.998V13.998C11.0142 13.446 11.4622 12.998 12.0142 12.998ZM8.01416 14.998C8.56616 14.998 9.01416 15.446 9.01416 15.998V16.998C9.01416 17.55 8.56616 17.998 8.01416 17.998C7.46216 17.998 7.01416 17.55 7.01416 16.998V15.998C7.01416 15.446 7.46216 14.998 8.01416 14.998Z" fill="white"/>
</g>
</svg>
