<svg width="24" height="24" viewBox="0 0 24 24" fill="none" xmlns="http://www.w3.org/2000/svg">
<path d="M12.0142 1.99902C10.6352 1.99902 9.52117 2.88803 9.17017 4.15503C8.26517 4.40603 7.49216 5.13602 7.20216 5.99902C6.66016 5.99902 6.18616 5.99902 6.01416 5.99902C3.80516 5.99902 2.01416 7.79002 2.01416 9.99902V17.999C2.01416 20.208 3.80516 21.999 6.01416 21.999H18.0142C20.2232 21.999 22.0142 20.208 22.0142 17.999V9.99902C22.0142 7.79002 20.2232 5.99902 18.0142 5.99902L16.8262 6.03003C16.5832 5.19503 15.7492 4.31202 14.8582 4.12402C14.5072 2.85702 13.3932 1.99902 12.0142 1.99902ZM12.0142 3.99902C12.5662 3.99902 13.0142 4.44702 13.0142 4.99902C13.0142 5.55102 13.4622 5.99902 14.0142 5.99902C14.5662 5.99902 15.0142 6.44702 15.0142 6.99902C15.0142 7.55102 14.5662 7.99902 14.0142 7.99902H10.0142C9.46216 7.99902 9.01416 7.55102 9.01416 6.99902C9.01416 6.44702 9.46216 5.99902 10.0142 5.99902C10.5662 5.99902 11.0142 5.55102 11.0142 4.99902C11.0142 4.44702 11.4622 3.99902 12.0142 3.99902ZM16.0142 10.999C16.5662 10.999 17.0142 11.447 17.0142 11.999V16.999C17.0142 17.551 16.5662 17.999 16.0142 17.999C15.4622 17.999 15.0142 17.551 15.0142 16.999V11.999C15.0142 11.447 15.4622 10.999 16.0142 10.999ZM12.0142 12.999C12.5662 12.999 13.0142 13.447 13.0142 13.999V16.999C13.0142 17.551 12.5662 17.999 12.0142 17.999C11.4622 17.999 11.0142 17.551 11.0142 16.999V13.999C11.0142 13.447 11.4622 12.999 12.0142 12.999ZM8.01416 14.999C8.56616 14.999 9.01416 15.447 9.01416 15.999V16.999C9.01416 17.551 8.56616 17.999 8.01416 17.999C7.46216 17.999 7.01416 17.551 7.01416 16.999V15.999C7.01416 15.447 7.46216 14.999 8.01416 14.999Z" fill="#333335"/>
</svg>
