<svg width="24" height="24" viewBox="0 0 24 24" fill="none" xmlns="http://www.w3.org/2000/svg">
<path d="M8.9679 2.45529C7.5499 2.90429 6.3269 3.6393 5.2489 4.6423C4.9159 4.9533 4.81391 5.46029 5.02991 5.86129C5.83091 7.34229 4.99289 8.9263 3.18689 9.0173C2.74389 9.0403 2.3529 9.36729 2.2489 9.79829C2.0699 10.5433 1.9989 11.1673 1.9989 11.9863C1.9989 12.6733 2.0729 13.4503 2.2179 14.1423C2.3079 14.5743 2.6839 14.8853 3.1239 14.9243C4.9419 15.0813 5.84191 16.4673 5.02991 18.2363C4.84991 18.6293 4.9319 19.0993 5.2489 19.3923C6.3109 20.3753 7.5309 21.0673 8.9679 21.5173C9.3779 21.6463 9.8409 21.4913 10.0929 21.1423C11.2049 19.6043 12.8179 19.5983 13.8739 21.1423C14.1229 21.5063 14.5789 21.6813 14.9989 21.5483C16.3859 21.1123 17.6779 20.3693 18.7489 19.3923C19.0789 19.0923 19.1659 18.6053 18.9679 18.2053C18.1359 16.5263 19.0929 14.9843 20.8109 14.9553C21.2669 14.9473 21.6729 14.6473 21.7799 14.2053C21.9529 13.4883 21.9989 12.8633 21.9989 11.9863C21.9989 11.2323 21.9099 10.4893 21.7489 9.7673C21.6469 9.3113 21.2479 8.98729 20.7799 8.98629C19.0889 8.98329 18.1409 7.32129 18.9679 5.86129C19.1979 5.45429 19.1259 4.9563 18.7799 4.6423C17.6899 3.6523 16.3609 2.87929 14.9679 2.45529C14.5399 2.32529 14.0849 2.48529 13.8429 2.86129C12.8769 4.36129 11.0729 4.3883 10.1239 2.8923C9.8809 2.5093 9.3999 2.31729 8.9679 2.45529ZM11.9989 7.98629C14.2079 7.98629 15.9989 9.77729 15.9989 11.9863C15.9989 14.1953 14.2079 15.9863 11.9989 15.9863C9.7899 15.9863 7.9989 14.1953 7.9989 11.9863C7.9989 9.77729 9.7899 7.98629 11.9989 7.98629Z" fill="#9B9B9C"/>
</svg>
