<svg width="24" height="24" viewBox="0 0 24 24" fill="none" xmlns="http://www.w3.org/2000/svg">
<g id="Icon/&#236;&#182;&#156;&#236;&#132;&#157;&#237;&#152;&#132;&#237;&#153;&#169;">
<path id="Vector" d="M15.499 2.92969C13.0137 2.92969 10.999 4.94469 10.999 7.42969C10.999 9.91469 13.0137 11.9297 15.499 11.9297C17.9843 11.9297 19.999 9.91469 19.999 7.42969C19.999 4.94469 17.9843 2.92969 15.499 2.92969ZM7.99902 3.92969C5.78992 3.92969 3.99902 5.72069 3.99902 7.92969C3.99902 10.1387 5.78992 11.9297 7.99902 11.9297C8.82842 11.9297 9.58552 11.7017 10.2518 11.2357C8.54302 8.69572 8.78522 6.26369 9.71653 4.30469C9.18463 4.05269 8.60042 3.92969 7.99902 3.92969ZM5.06152 13.2737C3.22742 14.0307 1.99902 15.8857 1.99902 17.9297V19.9297C1.99902 20.4817 2.44672 20.9297 2.99902 20.9297L7.15182 20.9317C6.91782 20.1717 6.98662 18.9397 7.00202 17.9427C7.03452 15.8257 7.91002 14.3157 8.25292 13.9177C7.62272 13.9127 6.86642 13.7597 6.31152 13.5237C6.17752 13.4667 6.09972 13.4217 5.84282 13.3047C5.59092 13.1897 5.31732 13.1677 5.06152 13.2737ZM12.0615 13.2737C10.2274 14.0307 8.99902 15.8857 8.99902 17.9297V19.9297C8.99902 20.4817 9.44672 20.9297 9.99902 20.9297H20.999C21.5513 20.9297 21.999 20.4817 21.999 19.9297V17.9297C21.999 15.9337 20.7638 14.1237 18.9365 13.3357C18.6793 13.2247 18.3796 13.2217 18.124 13.3357C17.2392 13.7327 16.3772 13.9297 15.499 13.9297C14.6238 13.9297 13.7588 13.7217 12.8428 13.3047C12.5909 13.1897 12.3173 13.1677 12.0615 13.2737Z" fill="white"/>
</g>
</svg>
