<svg width="72" height="34" viewBox="0 0 72 34" fill="none" xmlns="http://www.w3.org/2000/svg">
<g id="GDSC Symbol">
<path id="Vector" d="M17.1277 17.0623L28.8374 10.4497C31.5717 8.88351 32.5227 5.46118 30.9179 2.79292C29.313 0.12466 25.806 -0.80343 23.0717 0.762723L2.86203 12.1318L17.1277 17.0623Z" fill="#EA4335"/>
<path id="Vector_2" d="M25.9249 33.9996C27.8864 33.9996 29.8479 33.0135 30.9178 31.2153C32.5227 28.5471 31.5717 25.1247 28.8374 23.5586L8.62772 12.1895C5.89347 10.6233 2.38647 11.5514 0.781586 14.2197C-0.823301 16.8879 0.127744 20.3103 2.862 21.8764L23.0717 33.2455C23.9633 33.7676 24.9738 33.9996 25.9249 33.9996Z" fill="#4285F4"/>
<path id="Vector_3" d="M46.0158 33.9997C46.9668 33.9997 47.9773 33.7677 48.8689 33.2457L69.0786 21.8766L54.9913 16.8301L43.1032 23.5007C40.369 25.0669 39.4179 28.4892 41.0228 31.1575C42.0927 33.0136 44.0543 33.9997 46.0158 33.9997Z" fill="#FBBC04"/>
<path id="Vector_4" d="M66.2254 22.6314C68.187 22.6314 70.1485 21.6453 71.2184 19.8472C72.8233 17.1789 71.8723 13.7566 69.138 12.1904L48.9284 0.821313C46.1942 -0.744841 42.6872 0.183266 41.0823 2.85153C39.4774 5.51977 40.4285 8.9421 43.1627 10.5083L63.3723 21.8774C64.2639 22.3994 65.2744 22.6314 66.2254 22.6314Z" fill="#34A853"/>
</g>
</svg>
